<svg width="327" height="197" viewBox="0 0 327 197" fill="none" xmlns="http://www.w3.org/2000/svg">
<rect x="0.673828" width="326.326" height="196.209" rx="16" fill="url(#paint0_linear_11_1075)"/>
<path d="M15.3979 134.625H16.8539V145.825H15.3979V134.625ZM20.696 137.825H22.056V139.105H22.152C22.344 138.625 22.5893 138.263 22.888 138.017C23.1867 137.772 23.56 137.649 24.008 137.649C24.0613 137.649 24.1413 137.66 24.248 137.681C24.3653 137.692 24.488 137.724 24.616 137.777C24.7547 137.82 24.888 137.884 25.016 137.969C25.1547 138.055 25.272 138.161 25.368 138.289L24.824 139.281C24.728 139.143 24.5733 138.993 24.36 138.833C24.1573 138.673 23.9333 138.593 23.688 138.593C23.5067 138.593 23.32 138.636 23.128 138.721C22.936 138.807 22.76 138.945 22.6 139.137C22.44 139.329 22.3067 139.58 22.2 139.889C22.104 140.188 22.056 140.556 22.056 140.993V145.825H20.696V137.825ZM27.3174 137.825H28.6774V145.825H27.3174V137.825ZM27.1254 135.297C27.1254 135.063 27.2107 134.86 27.3814 134.689C27.5521 134.519 27.7547 134.433 27.9894 134.433C28.2241 134.433 28.4267 134.519 28.5974 134.689C28.7681 134.86 28.8534 135.063 28.8534 135.297C28.8534 135.532 28.7681 135.735 28.5974 135.905C28.4267 136.076 28.2241 136.161 27.9894 136.161C27.7547 136.161 27.5521 136.076 27.3814 135.905C27.2107 135.735 27.1254 135.532 27.1254 135.297ZM36.8313 139.649H35.9193C35.9193 139.511 35.8819 139.361 35.8073 139.201C35.7326 139.041 35.6153 138.897 35.4553 138.769C35.2953 138.631 35.0979 138.519 34.8633 138.433C34.6286 138.337 34.3513 138.289 34.0313 138.289C33.7113 138.289 33.4446 138.337 33.2313 138.433C33.0179 138.519 32.8473 138.631 32.7193 138.769C32.5913 138.897 32.5006 139.041 32.4473 139.201C32.3939 139.351 32.3673 139.495 32.3673 139.633C32.3673 139.964 32.4846 140.22 32.7193 140.401C32.9646 140.583 33.2686 140.737 33.6313 140.865C33.9939 140.993 34.3833 141.116 34.7993 141.233C35.2259 141.351 35.6206 141.505 35.9833 141.697C36.3459 141.879 36.6446 142.124 36.8793 142.433C37.1246 142.743 37.2473 143.153 37.2473 143.665C37.2473 144.369 36.9966 144.94 36.4953 145.377C36.0046 145.804 35.2686 146.017 34.2873 146.017C33.7433 146.017 33.2633 145.953 32.8473 145.825C32.4419 145.687 32.0953 145.505 31.8073 145.281C31.5299 145.057 31.3219 144.807 31.1833 144.529C31.0446 144.241 30.9753 143.948 30.9753 143.649H32.0153C32.0153 143.777 32.0526 143.937 32.1273 144.129C32.2126 144.321 32.3459 144.513 32.5273 144.705C32.7193 144.887 32.9593 145.047 33.2473 145.185C33.5459 145.313 33.9086 145.377 34.3353 145.377C34.6766 145.377 34.9593 145.335 35.1833 145.249C35.4073 145.153 35.5833 145.041 35.7113 144.913C35.8393 144.775 35.9246 144.625 35.9673 144.465C36.0206 144.305 36.0473 144.151 36.0473 144.001C36.0473 143.649 35.9299 143.372 35.6953 143.169C35.4606 142.967 35.1673 142.801 34.8153 142.673C34.4633 142.535 34.0793 142.412 33.6633 142.305C33.2579 142.188 32.8793 142.039 32.5273 141.857C32.1753 141.676 31.8819 141.436 31.6473 141.137C31.4126 140.839 31.2953 140.433 31.2953 139.921C31.2953 139.548 31.3646 139.223 31.5033 138.945C31.6419 138.657 31.8286 138.417 32.0633 138.225C32.3086 138.033 32.5913 137.889 32.9113 137.793C33.2419 137.697 33.5939 137.649 33.9673 137.649C34.3619 137.649 34.7299 137.703 35.0713 137.809C35.4233 137.905 35.7273 138.044 35.9833 138.225C36.2499 138.396 36.4579 138.604 36.6073 138.849C36.7566 139.095 36.8313 139.361 36.8313 139.649ZM44.2085 134.625H45.6805L48.9765 143.921H49.0405L52.2245 134.625H52.9125L56.0325 143.969H56.0965L59.4085 134.625H60.1445L56.1765 145.825H55.2325L52.2725 137.073H52.1925L49.1365 145.825H48.1765L44.2085 134.625ZM64.8431 137.649C65.6218 137.649 66.2245 137.761 66.6511 137.985C67.0778 138.199 67.3871 138.481 67.5791 138.833C67.7818 139.185 67.8991 139.591 67.9311 140.049C67.9631 140.508 67.9791 140.977 67.9791 141.457V145.825H66.6831V145.041C66.3738 145.34 65.9791 145.58 65.4991 145.761C65.0191 145.932 64.5391 146.017 64.0591 146.017C63.6005 146.017 63.1951 145.937 62.8431 145.777C62.4911 145.617 62.1978 145.409 61.9631 145.153C61.7285 144.897 61.5525 144.609 61.4351 144.289C61.3178 143.969 61.2591 143.644 61.2591 143.313C61.2591 142.972 61.3231 142.631 61.4511 142.289C61.5791 141.948 61.7711 141.644 62.0271 141.377C62.2831 141.1 62.5978 140.876 62.9711 140.705C63.3445 140.535 63.7711 140.449 64.2511 140.449C64.7311 140.449 65.1845 140.545 65.6111 140.737C66.0485 140.919 66.4058 141.18 66.6831 141.521V140.833C66.6831 139.959 66.5498 139.308 66.2831 138.881C66.0271 138.455 65.5525 138.241 64.8591 138.241C64.5605 138.241 64.2991 138.279 64.0751 138.353C63.8511 138.428 63.6485 138.535 63.4671 138.673C63.2965 138.801 63.1365 138.967 62.9871 139.169C62.8378 139.361 62.6885 139.58 62.5391 139.825L61.7071 138.993C61.8565 138.833 62.0111 138.673 62.1711 138.513C62.3418 138.353 62.5445 138.209 62.7791 138.081C63.0245 137.953 63.3125 137.852 63.6431 137.777C63.9738 137.692 64.3738 137.649 64.8431 137.649ZM66.6831 142.657C66.6298 142.529 66.5498 142.38 66.4431 142.209C66.3471 142.039 66.2191 141.873 66.0591 141.713C65.8991 141.553 65.7071 141.42 65.4831 141.313C65.2591 141.196 64.9925 141.137 64.6831 141.137C64.3738 141.137 64.0911 141.201 63.8351 141.329C63.5791 141.447 63.3605 141.607 63.1791 141.809C63.0085 142.001 62.8751 142.231 62.7791 142.497C62.6831 142.764 62.6351 143.041 62.6351 143.329C62.6351 143.671 62.6938 143.969 62.8111 144.225C62.9391 144.471 63.0991 144.684 63.2911 144.865C63.4831 145.036 63.6965 145.164 63.9311 145.249C64.1658 145.335 64.3898 145.377 64.6031 145.377C64.8058 145.377 65.0085 145.34 65.2111 145.265C65.4245 145.191 65.6218 145.089 65.8031 144.961C65.9951 144.823 66.1658 144.663 66.3151 144.481C66.4645 144.3 66.5871 144.103 66.6831 143.889V142.657ZM69.7398 138.465V137.825H71.1318V135.361H72.4918V137.825H74.4278V138.465H72.4918V143.777C72.4918 143.905 72.4971 144.055 72.5078 144.225C72.5184 144.385 72.5504 144.54 72.6038 144.689C72.6571 144.828 72.7371 144.945 72.8438 145.041C72.9611 145.137 73.1211 145.185 73.3238 145.185C73.5798 145.185 73.7931 145.089 73.9638 144.897C74.1344 144.705 74.2731 144.497 74.3798 144.273L75.1318 145.041C74.6091 145.564 74.0171 145.825 73.3558 145.825C73.0784 145.825 72.8064 145.777 72.5398 145.681C72.2731 145.585 72.0331 145.441 71.8198 145.249C71.6171 145.047 71.4518 144.791 71.3238 144.481C71.1958 144.172 71.1318 143.809 71.1318 143.393V138.465H69.7398ZM81.6438 139.649H80.7318C80.7318 139.511 80.6944 139.361 80.6198 139.201C80.5451 139.041 80.4278 138.897 80.2678 138.769C80.1078 138.631 79.9104 138.519 79.6758 138.433C79.4411 138.337 79.1638 138.289 78.8438 138.289C78.5238 138.289 78.2571 138.337 78.0438 138.433C77.8304 138.519 77.6598 138.631 77.5318 138.769C77.4038 138.897 77.3131 139.041 77.2598 139.201C77.2064 139.351 77.1798 139.495 77.1798 139.633C77.1798 139.964 77.2971 140.22 77.5318 140.401C77.7771 140.583 78.0811 140.737 78.4438 140.865C78.8064 140.993 79.1958 141.116 79.6118 141.233C80.0384 141.351 80.4331 141.505 80.7958 141.697C81.1584 141.879 81.4571 142.124 81.6918 142.433C81.9371 142.743 82.0598 143.153 82.0598 143.665C82.0598 144.369 81.8091 144.94 81.3078 145.377C80.8171 145.804 80.0811 146.017 79.0998 146.017C78.5558 146.017 78.0758 145.953 77.6598 145.825C77.2544 145.687 76.9078 145.505 76.6198 145.281C76.3424 145.057 76.1344 144.807 75.9958 144.529C75.8571 144.241 75.7878 143.948 75.7878 143.649H76.8278C76.8278 143.777 76.8651 143.937 76.9398 144.129C77.0251 144.321 77.1584 144.513 77.3398 144.705C77.5318 144.887 77.7718 145.047 78.0598 145.185C78.3584 145.313 78.7211 145.377 79.1478 145.377C79.4891 145.377 79.7718 145.335 79.9958 145.249C80.2198 145.153 80.3958 145.041 80.5238 144.913C80.6518 144.775 80.7371 144.625 80.7798 144.465C80.8331 144.305 80.8598 144.151 80.8598 144.001C80.8598 143.649 80.7424 143.372 80.5078 143.169C80.2731 142.967 79.9798 142.801 79.6278 142.673C79.2758 142.535 78.8918 142.412 78.4758 142.305C78.0704 142.188 77.6918 142.039 77.3398 141.857C76.9878 141.676 76.6944 141.436 76.4598 141.137C76.2251 140.839 76.1078 140.433 76.1078 139.921C76.1078 139.548 76.1771 139.223 76.3158 138.945C76.4544 138.657 76.6411 138.417 76.8758 138.225C77.1211 138.033 77.4038 137.889 77.7238 137.793C78.0544 137.697 78.4064 137.649 78.7798 137.649C79.1744 137.649 79.5424 137.703 79.8838 137.809C80.2358 137.905 80.5398 138.044 80.7958 138.225C81.0624 138.396 81.2704 138.604 81.4198 138.849C81.5691 139.095 81.6438 139.361 81.6438 139.649ZM92.0353 141.841C92.0353 142.396 91.9393 142.929 91.7473 143.441C91.5553 143.943 91.2779 144.385 90.9153 144.769C90.5633 145.153 90.1313 145.457 89.6193 145.681C89.1179 145.905 88.5526 146.017 87.9233 146.017C87.2833 146.017 86.7019 145.905 86.1793 145.681C85.6673 145.447 85.2299 145.137 84.8673 144.753C84.5153 144.369 84.2379 143.927 84.0353 143.425C83.8433 142.913 83.7473 142.385 83.7473 141.841C83.7473 141.287 83.8433 140.759 84.0353 140.257C84.2379 139.745 84.5153 139.297 84.8673 138.913C85.2299 138.529 85.6673 138.225 86.1793 138.001C86.7019 137.767 87.2833 137.649 87.9233 137.649C88.5526 137.649 89.1179 137.767 89.6193 138.001C90.1313 138.225 90.5633 138.529 90.9153 138.913C91.2779 139.297 91.5553 139.745 91.7473 140.257C91.9393 140.759 92.0353 141.287 92.0353 141.841ZM90.5153 141.841C90.5153 141.095 90.4353 140.492 90.2753 140.033C90.1153 139.564 89.9073 139.201 89.6513 138.945C89.3953 138.689 89.1126 138.519 88.8033 138.433C88.4939 138.337 88.1953 138.289 87.9073 138.289C87.6193 138.289 87.3206 138.337 87.0113 138.433C86.7019 138.519 86.4139 138.689 86.1473 138.945C85.8913 139.201 85.6779 139.564 85.5073 140.033C85.3473 140.492 85.2673 141.095 85.2673 141.841C85.2673 142.577 85.3473 143.18 85.5073 143.649C85.6779 144.108 85.8913 144.465 86.1473 144.721C86.4139 144.977 86.7019 145.153 87.0113 145.249C87.3206 145.335 87.6193 145.377 87.9073 145.377C88.1953 145.377 88.4939 145.335 88.8033 145.249C89.1126 145.153 89.3953 144.977 89.6513 144.721C89.9073 144.465 90.1153 144.108 90.2753 143.649C90.4353 143.18 90.5153 142.577 90.5153 141.841ZM100.806 145.825H99.4459V140.561C99.4459 140.455 99.4352 140.284 99.4139 140.049C99.3926 139.815 99.3232 139.58 99.2059 139.345C99.0992 139.111 98.9232 138.908 98.6779 138.737C98.4326 138.556 98.0859 138.465 97.6379 138.465C97.3606 138.465 97.0886 138.513 96.8219 138.609C96.5659 138.705 96.3366 138.855 96.1339 139.057C95.9312 139.26 95.7712 139.511 95.6539 139.809C95.5366 140.108 95.4779 140.465 95.4779 140.881V145.825H94.1179V137.825H95.4779V138.849H95.5419L95.7979 138.593C96.1712 138.22 96.5499 137.969 96.9339 137.841C97.3179 137.703 97.6646 137.639 97.9739 137.649C98.6779 137.649 99.2219 137.772 99.6059 138.017C99.9899 138.252 100.267 138.535 100.438 138.865C100.619 139.185 100.726 139.516 100.758 139.857C100.79 140.188 100.806 140.449 100.806 140.641V145.825Z" fill="white"/>
<path d="M269.577 139.21C269.577 138.901 269.599 138.543 269.641 138.138C269.695 137.722 269.775 137.301 269.881 136.874C269.999 136.437 270.148 136.01 270.329 135.594C270.521 135.178 270.756 134.81 271.033 134.49C271.311 134.159 271.641 133.893 272.025 133.69C272.409 133.487 272.857 133.386 273.369 133.386C273.881 133.386 274.329 133.487 274.713 133.69C275.108 133.893 275.444 134.159 275.721 134.49C276.009 134.81 276.249 135.178 276.441 135.594C276.633 136.01 276.783 136.437 276.889 136.874C277.007 137.301 277.087 137.722 277.129 138.138C277.183 138.543 277.209 138.901 277.209 139.21C277.209 139.882 277.135 140.559 276.985 141.242C276.836 141.914 276.601 142.527 276.281 143.082C275.972 143.637 275.572 144.09 275.081 144.442C274.601 144.783 274.031 144.954 273.369 144.954C272.708 144.954 272.137 144.783 271.657 144.442C271.188 144.09 270.799 143.637 270.489 143.082C270.18 142.527 269.951 141.914 269.801 141.242C269.652 140.559 269.577 139.882 269.577 139.21ZM271.177 139.21C271.177 139.754 271.199 140.325 271.241 140.922C271.284 141.519 271.38 142.063 271.529 142.554C271.689 143.045 271.913 143.45 272.201 143.77C272.489 144.09 272.879 144.25 273.369 144.25C273.871 144.25 274.271 144.09 274.569 143.77C274.868 143.45 275.092 143.045 275.241 142.554C275.401 142.063 275.503 141.519 275.545 140.922C275.588 140.325 275.609 139.754 275.609 139.21C275.609 138.655 275.588 138.074 275.545 137.466C275.503 136.858 275.401 136.309 275.241 135.818C275.092 135.317 274.868 134.906 274.569 134.586C274.271 134.255 273.871 134.09 273.369 134.09C272.879 134.09 272.489 134.255 272.201 134.586C271.913 134.906 271.689 135.317 271.529 135.818C271.38 136.309 271.284 136.858 271.241 137.466C271.199 138.074 271.177 138.655 271.177 139.21ZM282.02 138.474C282.244 138.474 282.5 138.453 282.788 138.41C283.087 138.357 283.364 138.255 283.62 138.106C283.887 137.946 284.106 137.722 284.276 137.434C284.458 137.146 284.548 136.767 284.548 136.298C284.548 136.01 284.506 135.738 284.42 135.482C284.346 135.215 284.223 134.981 284.052 134.778C283.892 134.565 283.684 134.399 283.428 134.282C283.172 134.154 282.868 134.09 282.516 134.09C282.292 134.09 282.079 134.117 281.876 134.17C281.674 134.223 281.492 134.325 281.332 134.474C281.172 134.613 281.039 134.81 280.932 135.066C280.826 135.322 280.751 135.647 280.708 136.042H279.284C279.295 135.754 279.354 135.455 279.46 135.146C279.578 134.826 279.764 134.538 280.02 134.282C280.276 134.015 280.612 133.802 281.028 133.642C281.444 133.471 281.967 133.386 282.596 133.386C283.172 133.386 283.668 133.471 284.084 133.642C284.511 133.802 284.858 134.021 285.124 134.298C285.402 134.565 285.604 134.879 285.732 135.242C285.86 135.605 285.924 135.983 285.924 136.378C285.924 136.933 285.775 137.386 285.476 137.738C285.178 138.079 284.724 138.378 284.116 138.634L283.94 138.698V138.81L284.116 138.842C284.468 138.895 284.783 139.013 285.06 139.194C285.338 139.365 285.572 139.578 285.764 139.834C285.967 140.079 286.122 140.357 286.228 140.666C286.335 140.965 286.388 141.263 286.388 141.562C286.388 141.989 286.303 142.405 286.132 142.81C285.972 143.215 285.727 143.578 285.396 143.898C285.066 144.207 284.65 144.458 284.148 144.65C283.658 144.842 283.082 144.938 282.42 144.938C281.951 144.949 281.508 144.885 281.092 144.746C280.676 144.607 280.308 144.415 279.988 144.17C279.679 143.914 279.428 143.621 279.236 143.29C279.055 142.959 278.964 142.613 278.964 142.25H280.564C280.575 142.506 280.628 142.757 280.724 143.002C280.831 143.247 280.97 143.461 281.14 143.642C281.322 143.823 281.535 143.973 281.78 144.09C282.026 144.197 282.303 144.25 282.612 144.25C283.252 144.25 283.77 144.037 284.164 143.61C284.57 143.183 284.772 142.522 284.772 141.626C284.772 141.434 284.751 141.199 284.708 140.922C284.666 140.645 284.554 140.378 284.372 140.122C284.202 139.855 283.93 139.631 283.556 139.45C283.183 139.269 282.671 139.178 282.02 139.178V138.474ZM295.128 133.386L288.936 144.97H287.832L293.992 133.386H295.128ZM303.826 144.778H296.466L299.49 141.402C299.757 141.082 300.039 140.735 300.338 140.362C300.647 139.989 300.93 139.594 301.186 139.178C301.442 138.762 301.655 138.33 301.826 137.882C301.997 137.434 302.082 136.975 302.082 136.506C302.082 135.77 301.885 135.183 301.49 134.746C301.106 134.309 300.61 134.09 300.002 134.09C299.639 134.09 299.335 134.159 299.09 134.298C298.855 134.437 298.658 134.623 298.498 134.858C298.349 135.082 298.237 135.349 298.162 135.658C298.087 135.957 298.034 136.271 298.002 136.602H296.402C296.402 136.154 296.493 135.733 296.674 135.338C296.855 134.943 297.106 134.602 297.426 134.314C297.757 134.026 298.141 133.802 298.578 133.642C299.015 133.471 299.49 133.386 300.002 133.386C300.578 133.386 301.095 133.471 301.554 133.642C302.013 133.802 302.397 134.026 302.706 134.314C303.015 134.602 303.25 134.938 303.41 135.322C303.581 135.695 303.666 136.09 303.666 136.506C303.666 137.029 303.613 137.477 303.506 137.85C303.41 138.223 303.25 138.586 303.026 138.938C302.813 139.279 302.53 139.642 302.178 140.026C301.837 140.41 301.421 140.869 300.93 141.402L298.85 143.626H303.826V144.778ZM307.137 137.594C307.436 137.477 307.702 137.391 307.937 137.338C308.182 137.274 308.454 137.242 308.753 137.242C309.265 137.242 309.74 137.327 310.177 137.498C310.614 137.658 310.993 137.898 311.313 138.218C311.644 138.527 311.9 138.901 312.081 139.338C312.273 139.775 312.369 140.266 312.369 140.81C312.369 141.471 312.257 142.058 312.033 142.57C311.82 143.082 311.521 143.514 311.137 143.866C310.764 144.218 310.321 144.49 309.809 144.682C309.308 144.863 308.769 144.954 308.193 144.954C307.702 144.954 307.249 144.885 306.833 144.746C306.428 144.597 306.076 144.399 305.777 144.154C305.478 143.909 305.238 143.615 305.057 143.274C304.886 142.933 304.796 142.57 304.785 142.186H305.953C305.964 142.474 306.022 142.746 306.129 143.002C306.236 143.247 306.38 143.466 306.561 143.658C306.753 143.839 306.982 143.983 307.249 144.09C307.516 144.197 307.82 144.25 308.161 144.25C308.47 144.25 308.78 144.191 309.089 144.074C309.398 143.946 309.676 143.749 309.921 143.482C310.177 143.205 310.38 142.858 310.529 142.442C310.689 142.015 310.769 141.503 310.769 140.906C310.769 140.063 310.545 139.381 310.097 138.858C309.649 138.335 308.977 138.074 308.081 138.074C307.868 138.074 307.574 138.095 307.201 138.138C306.828 138.181 306.412 138.319 305.953 138.554L307.377 133.578H312.225L311.905 134.458H308.065L307.137 137.594Z" fill="white"/>
<path d="M21.9898 172.295H13.7098L17.1118 168.497C17.4118 168.137 17.7298 167.747 18.0658 167.327C18.4138 166.907 18.7318 166.463 19.0198 165.995C19.3078 165.527 19.5478 165.041 19.7398 164.537C19.9318 164.033 20.0278 163.517 20.0278 162.989C20.0278 162.161 19.8058 161.501 19.3618 161.009C18.9298 160.517 18.3718 160.271 17.6878 160.271C17.2798 160.271 16.9378 160.349 16.6618 160.505C16.3978 160.661 16.1758 160.871 15.9958 161.135C15.8278 161.387 15.7018 161.687 15.6178 162.035C15.5338 162.371 15.4738 162.725 15.4378 163.097H13.6378C13.6378 162.593 13.7398 162.119 13.9438 161.675C14.1478 161.231 14.4298 160.847 14.7898 160.523C15.1618 160.199 15.5938 159.947 16.0858 159.767C16.5778 159.575 17.1118 159.479 17.6878 159.479C18.3358 159.479 18.9178 159.575 19.4338 159.767C19.9498 159.947 20.3818 160.199 20.7298 160.523C21.0778 160.847 21.3418 161.225 21.5218 161.657C21.7138 162.077 21.8098 162.521 21.8098 162.989C21.8098 163.577 21.7498 164.081 21.6298 164.501C21.5218 164.921 21.3418 165.329 21.0898 165.725C20.8498 166.109 20.5318 166.517 20.1358 166.949C19.7518 167.381 19.2838 167.897 18.7318 168.497L16.3918 170.999H21.9898V172.295ZM27.8668 165.203C28.1188 165.203 28.4068 165.179 28.7308 165.131C29.0668 165.071 29.3788 164.957 29.6668 164.789C29.9668 164.609 30.2128 164.357 30.4048 164.033C30.6088 163.709 30.7108 163.283 30.7108 162.755C30.7108 162.431 30.6628 162.125 30.5668 161.837C30.4828 161.537 30.3448 161.273 30.1528 161.045C29.9728 160.805 29.7388 160.619 29.4508 160.487C29.1628 160.343 28.8208 160.271 28.4248 160.271C28.1728 160.271 27.9328 160.301 27.7048 160.361C27.4768 160.421 27.2728 160.535 27.0928 160.703C26.9128 160.859 26.7628 161.081 26.6428 161.369C26.5228 161.657 26.4388 162.023 26.3908 162.467H24.7888C24.8008 162.143 24.8668 161.807 24.9868 161.459C25.1188 161.099 25.3288 160.775 25.6168 160.487C25.9048 160.187 26.2828 159.947 26.7508 159.767C27.2188 159.575 27.8068 159.479 28.5148 159.479C29.1628 159.479 29.7208 159.575 30.1888 159.767C30.6688 159.947 31.0588 160.193 31.3588 160.505C31.6708 160.805 31.8988 161.159 32.0428 161.567C32.1868 161.975 32.2588 162.401 32.2588 162.845C32.2588 163.469 32.0908 163.979 31.7548 164.375C31.4188 164.759 30.9088 165.095 30.2248 165.383L30.0268 165.455V165.581L30.2248 165.617C30.6208 165.677 30.9748 165.809 31.2868 166.013C31.5988 166.205 31.8628 166.445 32.0788 166.733C32.3068 167.009 32.4808 167.321 32.6008 167.669C32.7208 168.005 32.7808 168.341 32.7808 168.677C32.7808 169.157 32.6848 169.625 32.4928 170.081C32.3128 170.537 32.0368 170.945 31.6648 171.305C31.2928 171.653 30.8248 171.935 30.2608 172.151C29.7088 172.367 29.0608 172.475 28.3168 172.475C27.7888 172.487 27.2908 172.415 26.8228 172.259C26.3548 172.103 25.9408 171.887 25.5808 171.611C25.2328 171.323 24.9508 170.993 24.7348 170.621C24.5308 170.249 24.4288 169.859 24.4288 169.451H26.2288C26.2408 169.739 26.3008 170.021 26.4088 170.297C26.5288 170.573 26.6848 170.813 26.8768 171.017C27.0808 171.221 27.3208 171.389 27.5968 171.521C27.8728 171.641 28.1848 171.701 28.5328 171.701C29.2528 171.701 29.8348 171.461 30.2788 170.981C30.7348 170.501 30.9628 169.757 30.9628 168.749C30.9628 168.533 30.9388 168.269 30.8908 167.957C30.8428 167.645 30.7168 167.345 30.5128 167.057C30.3208 166.757 30.0148 166.505 29.5948 166.301C29.1748 166.097 28.5988 165.995 27.8668 165.995V165.203ZM43.6847 161.603H42.1727C42.1007 161.183 41.9027 160.859 41.5787 160.631C41.2547 160.391 40.8647 160.271 40.4087 160.271C39.8087 160.271 39.3167 160.409 38.9327 160.685C38.5487 160.961 38.2487 161.351 38.0327 161.855C37.8167 162.347 37.6667 162.941 37.5827 163.637C37.5107 164.333 37.4747 165.101 37.4747 165.941H37.5467L37.7627 165.527C37.9667 165.119 38.2907 164.765 38.7347 164.465C39.1907 164.165 39.7907 164.015 40.5347 164.015C40.9787 164.015 41.4227 164.099 41.8667 164.267C42.3227 164.423 42.7307 164.669 43.0907 165.005C43.4507 165.341 43.7447 165.767 43.9727 166.283C44.2007 166.799 44.3147 167.417 44.3147 168.137C44.3147 168.737 44.2127 169.301 44.0087 169.829C43.8047 170.357 43.5227 170.819 43.1627 171.215C42.8027 171.611 42.3707 171.923 41.8667 172.151C41.3627 172.379 40.8047 172.493 40.1927 172.493C39.3047 172.493 38.5787 172.295 38.0147 171.899C37.4627 171.503 37.0307 170.993 36.7187 170.369C36.4187 169.745 36.2147 169.049 36.1067 168.281C35.9987 167.501 35.9447 166.727 35.9447 165.959C35.9447 165.143 36.0227 164.345 36.1787 163.565C36.3467 162.785 36.6107 162.095 36.9707 161.495C37.3427 160.883 37.8167 160.397 38.3927 160.037C38.9687 159.665 39.6707 159.479 40.4987 159.479C40.8947 159.479 41.2727 159.521 41.6327 159.605C41.9927 159.689 42.3167 159.815 42.6047 159.983C42.8927 160.151 43.1327 160.373 43.3247 160.649C43.5167 160.913 43.6367 161.231 43.6847 161.603ZM37.6547 168.263C37.6547 168.875 37.7327 169.397 37.8887 169.829C38.0447 170.261 38.2427 170.621 38.4827 170.909C38.7227 171.185 38.9927 171.389 39.2927 171.521C39.6047 171.641 39.9047 171.701 40.1927 171.701C40.4207 171.701 40.6727 171.659 40.9487 171.575C41.2367 171.491 41.5067 171.323 41.7587 171.071C42.0107 170.819 42.2207 170.471 42.3887 170.027C42.5567 169.571 42.6407 168.983 42.6407 168.263C42.6407 167.603 42.5627 167.051 42.4067 166.607C42.2627 166.163 42.0707 165.809 41.8307 165.545C41.5907 165.281 41.3267 165.095 41.0387 164.987C40.7507 164.879 40.4747 164.825 40.2107 164.825C39.9107 164.825 39.6107 164.891 39.3107 165.023C39.0107 165.143 38.7347 165.341 38.4827 165.617C38.2427 165.881 38.0447 166.235 37.8887 166.679C37.7327 167.111 37.6547 167.639 37.6547 168.263ZM49.58 164.213C49.916 164.081 50.216 163.985 50.48 163.925C50.756 163.853 51.062 163.817 51.398 163.817C51.974 163.817 52.508 163.913 53 164.105C53.492 164.285 53.918 164.555 54.278 164.915C54.65 165.263 54.938 165.683 55.142 166.175C55.358 166.667 55.466 167.219 55.466 167.831C55.466 168.575 55.34 169.235 55.088 169.811C54.848 170.387 54.512 170.873 54.08 171.269C53.66 171.665 53.162 171.971 52.586 172.187C52.022 172.391 51.416 172.493 50.768 172.493C50.216 172.493 49.706 172.415 49.238 172.259C48.782 172.091 48.386 171.869 48.05 171.593C47.714 171.317 47.444 170.987 47.24 170.603C47.048 170.219 46.946 169.811 46.934 169.379H48.248C48.26 169.703 48.326 170.009 48.446 170.297C48.566 170.573 48.728 170.819 48.932 171.035C49.148 171.239 49.406 171.401 49.706 171.521C50.006 171.641 50.348 171.701 50.732 171.701C51.08 171.701 51.428 171.635 51.776 171.503C52.124 171.359 52.436 171.137 52.712 170.837C53 170.525 53.228 170.135 53.396 169.667C53.576 169.187 53.666 168.611 53.666 167.939C53.666 166.991 53.414 166.223 52.91 165.635C52.406 165.047 51.65 164.753 50.642 164.753C50.402 164.753 50.072 164.777 49.652 164.825C49.232 164.873 48.764 165.029 48.248 165.293L49.85 159.695H55.304L54.944 160.685H50.624L49.58 164.213ZM69.1852 165.203C69.4372 165.203 69.7252 165.179 70.0492 165.131C70.3852 165.071 70.6972 164.957 70.9852 164.789C71.2852 164.609 71.5312 164.357 71.7232 164.033C71.9272 163.709 72.0292 163.283 72.0292 162.755C72.0292 162.431 71.9812 162.125 71.8852 161.837C71.8012 161.537 71.6632 161.273 71.4712 161.045C71.2912 160.805 71.0572 160.619 70.7692 160.487C70.4812 160.343 70.1392 160.271 69.7432 160.271C69.4912 160.271 69.2512 160.301 69.0232 160.361C68.7952 160.421 68.5912 160.535 68.4112 160.703C68.2312 160.859 68.0812 161.081 67.9612 161.369C67.8412 161.657 67.7572 162.023 67.7092 162.467H66.1072C66.1192 162.143 66.1852 161.807 66.3052 161.459C66.4372 161.099 66.6472 160.775 66.9352 160.487C67.2232 160.187 67.6012 159.947 68.0692 159.767C68.5372 159.575 69.1252 159.479 69.8332 159.479C70.4812 159.479 71.0392 159.575 71.5072 159.767C71.9872 159.947 72.3772 160.193 72.6772 160.505C72.9892 160.805 73.2172 161.159 73.3612 161.567C73.5052 161.975 73.5772 162.401 73.5772 162.845C73.5772 163.469 73.4092 163.979 73.0732 164.375C72.7372 164.759 72.2272 165.095 71.5432 165.383L71.3452 165.455V165.581L71.5432 165.617C71.9392 165.677 72.2932 165.809 72.6052 166.013C72.9172 166.205 73.1812 166.445 73.3972 166.733C73.6252 167.009 73.7992 167.321 73.9192 167.669C74.0392 168.005 74.0992 168.341 74.0992 168.677C74.0992 169.157 74.0032 169.625 73.8112 170.081C73.6312 170.537 73.3552 170.945 72.9832 171.305C72.6112 171.653 72.1432 171.935 71.5792 172.151C71.0272 172.367 70.3792 172.475 69.6352 172.475C69.1072 172.487 68.6092 172.415 68.1412 172.259C67.6732 172.103 67.2592 171.887 66.8992 171.611C66.5512 171.323 66.2692 170.993 66.0532 170.621C65.8492 170.249 65.7472 169.859 65.7472 169.451H67.5472C67.5592 169.739 67.6192 170.021 67.7272 170.297C67.8472 170.573 68.0032 170.813 68.1952 171.017C68.3992 171.221 68.6392 171.389 68.9152 171.521C69.1912 171.641 69.5032 171.701 69.8512 171.701C70.5712 171.701 71.1532 171.461 71.5972 170.981C72.0532 170.501 72.2812 169.757 72.2812 168.749C72.2812 168.533 72.2572 168.269 72.2092 167.957C72.1612 167.645 72.0352 167.345 71.8312 167.057C71.6392 166.757 71.3332 166.505 70.9132 166.301C70.4932 166.097 69.9172 165.995 69.1852 165.995V165.203ZM85.0031 161.603H83.4911C83.4191 161.183 83.2211 160.859 82.8971 160.631C82.5731 160.391 82.1831 160.271 81.7271 160.271C81.1271 160.271 80.6351 160.409 80.2511 160.685C79.8671 160.961 79.5671 161.351 79.3511 161.855C79.1351 162.347 78.9851 162.941 78.9011 163.637C78.8291 164.333 78.7931 165.101 78.7931 165.941H78.8651L79.0811 165.527C79.2851 165.119 79.6091 164.765 80.0531 164.465C80.5091 164.165 81.1091 164.015 81.8531 164.015C82.2971 164.015 82.7411 164.099 83.1851 164.267C83.6411 164.423 84.0491 164.669 84.4091 165.005C84.7691 165.341 85.0631 165.767 85.2911 166.283C85.5191 166.799 85.6331 167.417 85.6331 168.137C85.6331 168.737 85.5311 169.301 85.3271 169.829C85.1231 170.357 84.8411 170.819 84.4811 171.215C84.1211 171.611 83.6891 171.923 83.1851 172.151C82.6811 172.379 82.1231 172.493 81.5111 172.493C80.6231 172.493 79.8971 172.295 79.3331 171.899C78.7811 171.503 78.3491 170.993 78.0371 170.369C77.7371 169.745 77.5331 169.049 77.4251 168.281C77.3171 167.501 77.2631 166.727 77.2631 165.959C77.2631 165.143 77.3411 164.345 77.4971 163.565C77.6651 162.785 77.9291 162.095 78.2891 161.495C78.6611 160.883 79.1351 160.397 79.7111 160.037C80.2871 159.665 80.9891 159.479 81.8171 159.479C82.2131 159.479 82.5911 159.521 82.9511 159.605C83.3111 159.689 83.6351 159.815 83.9231 159.983C84.2111 160.151 84.4511 160.373 84.6431 160.649C84.8351 160.913 84.9551 161.231 85.0031 161.603ZM78.9731 168.263C78.9731 168.875 79.0511 169.397 79.2071 169.829C79.3631 170.261 79.5611 170.621 79.8011 170.909C80.0411 171.185 80.3111 171.389 80.6111 171.521C80.9231 171.641 81.2231 171.701 81.5111 171.701C81.7391 171.701 81.9911 171.659 82.2671 171.575C82.5551 171.491 82.8251 171.323 83.0771 171.071C83.3291 170.819 83.5391 170.471 83.7071 170.027C83.8751 169.571 83.9591 168.983 83.9591 168.263C83.9591 167.603 83.8811 167.051 83.7251 166.607C83.5811 166.163 83.3891 165.809 83.1491 165.545C82.9091 165.281 82.6451 165.095 82.3571 164.987C82.0691 164.879 81.7931 164.825 81.5291 164.825C81.2291 164.825 80.9291 164.891 80.6291 165.023C80.3291 165.143 80.0531 165.341 79.8011 165.617C79.5611 165.881 79.3631 166.235 79.2071 166.679C79.0511 167.111 78.9731 167.639 78.9731 168.263ZM90.8984 164.213C91.2344 164.081 91.5344 163.985 91.7984 163.925C92.0744 163.853 92.3804 163.817 92.7164 163.817C93.2924 163.817 93.8264 163.913 94.3184 164.105C94.8104 164.285 95.2364 164.555 95.5964 164.915C95.9684 165.263 96.2564 165.683 96.4604 166.175C96.6764 166.667 96.7844 167.219 96.7844 167.831C96.7844 168.575 96.6584 169.235 96.4064 169.811C96.1664 170.387 95.8304 170.873 95.3984 171.269C94.9784 171.665 94.4804 171.971 93.9044 172.187C93.3404 172.391 92.7344 172.493 92.0864 172.493C91.5344 172.493 91.0244 172.415 90.5564 172.259C90.1004 172.091 89.7044 171.869 89.3684 171.593C89.0324 171.317 88.7624 170.987 88.5584 170.603C88.3664 170.219 88.2644 169.811 88.2524 169.379H89.5664C89.5784 169.703 89.6444 170.009 89.7644 170.297C89.8844 170.573 90.0464 170.819 90.2504 171.035C90.4664 171.239 90.7244 171.401 91.0244 171.521C91.3244 171.641 91.6664 171.701 92.0504 171.701C92.3984 171.701 92.7464 171.635 93.0944 171.503C93.4424 171.359 93.7544 171.137 94.0304 170.837C94.3184 170.525 94.5464 170.135 94.7144 169.667C94.8944 169.187 94.9844 168.611 94.9844 167.939C94.9844 166.991 94.7324 166.223 94.2284 165.635C93.7244 165.047 92.9684 164.753 91.9604 164.753C91.7204 164.753 91.3904 164.777 90.9704 164.825C90.5504 164.873 90.0824 165.029 89.5664 165.293L91.1684 159.695H96.6224L96.2624 160.685H91.9424L90.8984 164.213ZM106.289 168.317H107.999V169.271H106.289V172.295H104.831V169.271H99.4126L105.623 159.695H106.289V168.317ZM100.817 168.317H104.831V162.107L100.817 168.317ZM126.261 172.295H117.981L121.383 168.497C121.683 168.137 122.001 167.747 122.337 167.327C122.685 166.907 123.003 166.463 123.291 165.995C123.579 165.527 123.819 165.041 124.011 164.537C124.203 164.033 124.299 163.517 124.299 162.989C124.299 162.161 124.077 161.501 123.633 161.009C123.201 160.517 122.643 160.271 121.959 160.271C121.551 160.271 121.209 160.349 120.933 160.505C120.669 160.661 120.447 160.871 120.267 161.135C120.099 161.387 119.973 161.687 119.889 162.035C119.805 162.371 119.745 162.725 119.709 163.097H117.909C117.909 162.593 118.011 162.119 118.215 161.675C118.419 161.231 118.701 160.847 119.061 160.523C119.433 160.199 119.865 159.947 120.357 159.767C120.849 159.575 121.383 159.479 121.959 159.479C122.607 159.479 123.189 159.575 123.705 159.767C124.221 159.947 124.653 160.199 125.001 160.523C125.349 160.847 125.613 161.225 125.793 161.657C125.985 162.077 126.081 162.521 126.081 162.989C126.081 163.577 126.021 164.081 125.901 164.501C125.793 164.921 125.613 165.329 125.361 165.725C125.121 166.109 124.803 166.517 124.407 166.949C124.023 167.381 123.555 167.897 123.003 168.497L120.663 170.999H126.261V172.295ZM132.138 165.203C132.39 165.203 132.678 165.179 133.002 165.131C133.338 165.071 133.65 164.957 133.938 164.789C134.238 164.609 134.484 164.357 134.676 164.033C134.88 163.709 134.982 163.283 134.982 162.755C134.982 162.431 134.934 162.125 134.838 161.837C134.754 161.537 134.616 161.273 134.424 161.045C134.244 160.805 134.01 160.619 133.722 160.487C133.434 160.343 133.092 160.271 132.696 160.271C132.444 160.271 132.204 160.301 131.976 160.361C131.748 160.421 131.544 160.535 131.364 160.703C131.184 160.859 131.034 161.081 130.914 161.369C130.794 161.657 130.71 162.023 130.662 162.467H129.06C129.072 162.143 129.138 161.807 129.258 161.459C129.39 161.099 129.6 160.775 129.888 160.487C130.176 160.187 130.554 159.947 131.022 159.767C131.49 159.575 132.078 159.479 132.786 159.479C133.434 159.479 133.992 159.575 134.46 159.767C134.94 159.947 135.33 160.193 135.63 160.505C135.942 160.805 136.17 161.159 136.314 161.567C136.458 161.975 136.53 162.401 136.53 162.845C136.53 163.469 136.362 163.979 136.026 164.375C135.69 164.759 135.18 165.095 134.496 165.383L134.298 165.455V165.581L134.496 165.617C134.892 165.677 135.246 165.809 135.558 166.013C135.87 166.205 136.134 166.445 136.35 166.733C136.578 167.009 136.752 167.321 136.872 167.669C136.992 168.005 137.052 168.341 137.052 168.677C137.052 169.157 136.956 169.625 136.764 170.081C136.584 170.537 136.308 170.945 135.936 171.305C135.564 171.653 135.096 171.935 134.532 172.151C133.98 172.367 133.332 172.475 132.588 172.475C132.06 172.487 131.562 172.415 131.094 172.259C130.626 172.103 130.212 171.887 129.852 171.611C129.504 171.323 129.222 170.993 129.006 170.621C128.802 170.249 128.7 169.859 128.7 169.451H130.5C130.512 169.739 130.572 170.021 130.68 170.297C130.8 170.573 130.956 170.813 131.148 171.017C131.352 171.221 131.592 171.389 131.868 171.521C132.144 171.641 132.456 171.701 132.804 171.701C133.524 171.701 134.106 171.461 134.55 170.981C135.006 170.501 135.234 169.757 135.234 168.749C135.234 168.533 135.21 168.269 135.162 167.957C135.114 167.645 134.988 167.345 134.784 167.057C134.592 166.757 134.286 166.505 133.866 166.301C133.446 166.097 132.87 165.995 132.138 165.995V165.203ZM147.956 161.603H146.444C146.372 161.183 146.174 160.859 145.85 160.631C145.526 160.391 145.136 160.271 144.68 160.271C144.08 160.271 143.588 160.409 143.204 160.685C142.82 160.961 142.52 161.351 142.304 161.855C142.088 162.347 141.938 162.941 141.854 163.637C141.782 164.333 141.746 165.101 141.746 165.941H141.818L142.034 165.527C142.238 165.119 142.562 164.765 143.006 164.465C143.462 164.165 144.062 164.015 144.806 164.015C145.25 164.015 145.694 164.099 146.138 164.267C146.594 164.423 147.002 164.669 147.362 165.005C147.722 165.341 148.016 165.767 148.244 166.283C148.472 166.799 148.586 167.417 148.586 168.137C148.586 168.737 148.484 169.301 148.28 169.829C148.076 170.357 147.794 170.819 147.434 171.215C147.074 171.611 146.642 171.923 146.138 172.151C145.634 172.379 145.076 172.493 144.464 172.493C143.576 172.493 142.85 172.295 142.286 171.899C141.734 171.503 141.302 170.993 140.99 170.369C140.69 169.745 140.486 169.049 140.378 168.281C140.27 167.501 140.216 166.727 140.216 165.959C140.216 165.143 140.294 164.345 140.45 163.565C140.618 162.785 140.882 162.095 141.242 161.495C141.614 160.883 142.088 160.397 142.664 160.037C143.24 159.665 143.942 159.479 144.77 159.479C145.166 159.479 145.544 159.521 145.904 159.605C146.264 159.689 146.588 159.815 146.876 159.983C147.164 160.151 147.404 160.373 147.596 160.649C147.788 160.913 147.908 161.231 147.956 161.603ZM141.926 168.263C141.926 168.875 142.004 169.397 142.16 169.829C142.316 170.261 142.514 170.621 142.754 170.909C142.994 171.185 143.264 171.389 143.564 171.521C143.876 171.641 144.176 171.701 144.464 171.701C144.692 171.701 144.944 171.659 145.22 171.575C145.508 171.491 145.778 171.323 146.03 171.071C146.282 170.819 146.492 170.471 146.66 170.027C146.828 169.571 146.912 168.983 146.912 168.263C146.912 167.603 146.834 167.051 146.678 166.607C146.534 166.163 146.342 165.809 146.102 165.545C145.862 165.281 145.598 165.095 145.31 164.987C145.022 164.879 144.746 164.825 144.482 164.825C144.182 164.825 143.882 164.891 143.582 165.023C143.282 165.143 143.006 165.341 142.754 165.617C142.514 165.881 142.316 166.235 142.16 166.679C142.004 167.111 141.926 167.639 141.926 168.263ZM153.852 164.213C154.188 164.081 154.488 163.985 154.752 163.925C155.028 163.853 155.334 163.817 155.67 163.817C156.246 163.817 156.78 163.913 157.272 164.105C157.764 164.285 158.19 164.555 158.55 164.915C158.922 165.263 159.21 165.683 159.414 166.175C159.63 166.667 159.738 167.219 159.738 167.831C159.738 168.575 159.612 169.235 159.36 169.811C159.12 170.387 158.784 170.873 158.352 171.269C157.932 171.665 157.434 171.971 156.858 172.187C156.294 172.391 155.688 172.493 155.04 172.493C154.488 172.493 153.978 172.415 153.51 172.259C153.054 172.091 152.658 171.869 152.322 171.593C151.986 171.317 151.716 170.987 151.512 170.603C151.32 170.219 151.218 169.811 151.206 169.379H152.52C152.532 169.703 152.598 170.009 152.718 170.297C152.838 170.573 153 170.819 153.204 171.035C153.42 171.239 153.678 171.401 153.978 171.521C154.278 171.641 154.62 171.701 155.004 171.701C155.352 171.701 155.7 171.635 156.048 171.503C156.396 171.359 156.708 171.137 156.984 170.837C157.272 170.525 157.5 170.135 157.668 169.667C157.848 169.187 157.938 168.611 157.938 167.939C157.938 166.991 157.686 166.223 157.182 165.635C156.678 165.047 155.922 164.753 154.914 164.753C154.674 164.753 154.344 164.777 153.924 164.825C153.504 164.873 153.036 165.029 152.52 165.293L154.122 159.695H159.576L159.216 160.685H154.896L153.852 164.213ZM173.457 165.203C173.709 165.203 173.997 165.179 174.321 165.131C174.657 165.071 174.969 164.957 175.257 164.789C175.557 164.609 175.803 164.357 175.995 164.033C176.199 163.709 176.301 163.283 176.301 162.755C176.301 162.431 176.253 162.125 176.157 161.837C176.073 161.537 175.935 161.273 175.743 161.045C175.563 160.805 175.329 160.619 175.041 160.487C174.753 160.343 174.411 160.271 174.015 160.271C173.763 160.271 173.523 160.301 173.295 160.361C173.067 160.421 172.863 160.535 172.683 160.703C172.503 160.859 172.353 161.081 172.233 161.369C172.113 161.657 172.029 162.023 171.981 162.467H170.379C170.391 162.143 170.457 161.807 170.577 161.459C170.709 161.099 170.919 160.775 171.207 160.487C171.495 160.187 171.873 159.947 172.341 159.767C172.809 159.575 173.397 159.479 174.105 159.479C174.753 159.479 175.311 159.575 175.779 159.767C176.259 159.947 176.649 160.193 176.949 160.505C177.261 160.805 177.489 161.159 177.633 161.567C177.777 161.975 177.849 162.401 177.849 162.845C177.849 163.469 177.681 163.979 177.345 164.375C177.009 164.759 176.499 165.095 175.815 165.383L175.617 165.455V165.581L175.815 165.617C176.211 165.677 176.565 165.809 176.877 166.013C177.189 166.205 177.453 166.445 177.669 166.733C177.897 167.009 178.071 167.321 178.191 167.669C178.311 168.005 178.371 168.341 178.371 168.677C178.371 169.157 178.275 169.625 178.083 170.081C177.903 170.537 177.627 170.945 177.255 171.305C176.883 171.653 176.415 171.935 175.851 172.151C175.299 172.367 174.651 172.475 173.907 172.475C173.379 172.487 172.881 172.415 172.413 172.259C171.945 172.103 171.531 171.887 171.171 171.611C170.823 171.323 170.541 170.993 170.325 170.621C170.121 170.249 170.019 169.859 170.019 169.451H171.819C171.831 169.739 171.891 170.021 171.999 170.297C172.119 170.573 172.275 170.813 172.467 171.017C172.671 171.221 172.911 171.389 173.187 171.521C173.463 171.641 173.775 171.701 174.123 171.701C174.843 171.701 175.425 171.461 175.869 170.981C176.325 170.501 176.553 169.757 176.553 168.749C176.553 168.533 176.529 168.269 176.481 167.957C176.433 167.645 176.307 167.345 176.103 167.057C175.911 166.757 175.605 166.505 175.185 166.301C174.765 166.097 174.189 165.995 173.457 165.995V165.203ZM189.275 161.603H187.763C187.691 161.183 187.493 160.859 187.169 160.631C186.845 160.391 186.455 160.271 185.999 160.271C185.399 160.271 184.907 160.409 184.523 160.685C184.139 160.961 183.839 161.351 183.623 161.855C183.407 162.347 183.257 162.941 183.173 163.637C183.101 164.333 183.065 165.101 183.065 165.941H183.137L183.353 165.527C183.557 165.119 183.881 164.765 184.325 164.465C184.781 164.165 185.381 164.015 186.125 164.015C186.569 164.015 187.013 164.099 187.457 164.267C187.913 164.423 188.321 164.669 188.681 165.005C189.041 165.341 189.335 165.767 189.563 166.283C189.791 166.799 189.905 167.417 189.905 168.137C189.905 168.737 189.803 169.301 189.599 169.829C189.395 170.357 189.113 170.819 188.753 171.215C188.393 171.611 187.961 171.923 187.457 172.151C186.953 172.379 186.395 172.493 185.783 172.493C184.895 172.493 184.169 172.295 183.605 171.899C183.053 171.503 182.621 170.993 182.309 170.369C182.009 169.745 181.805 169.049 181.697 168.281C181.589 167.501 181.535 166.727 181.535 165.959C181.535 165.143 181.613 164.345 181.769 163.565C181.937 162.785 182.201 162.095 182.561 161.495C182.933 160.883 183.407 160.397 183.983 160.037C184.559 159.665 185.261 159.479 186.089 159.479C186.485 159.479 186.863 159.521 187.223 159.605C187.583 159.689 187.907 159.815 188.195 159.983C188.483 160.151 188.723 160.373 188.915 160.649C189.107 160.913 189.227 161.231 189.275 161.603ZM183.245 168.263C183.245 168.875 183.323 169.397 183.479 169.829C183.635 170.261 183.833 170.621 184.073 170.909C184.313 171.185 184.583 171.389 184.883 171.521C185.195 171.641 185.495 171.701 185.783 171.701C186.011 171.701 186.263 171.659 186.539 171.575C186.827 171.491 187.097 171.323 187.349 171.071C187.601 170.819 187.811 170.471 187.979 170.027C188.147 169.571 188.231 168.983 188.231 168.263C188.231 167.603 188.153 167.051 187.997 166.607C187.853 166.163 187.661 165.809 187.421 165.545C187.181 165.281 186.917 165.095 186.629 164.987C186.341 164.879 186.065 164.825 185.801 164.825C185.501 164.825 185.201 164.891 184.901 165.023C184.601 165.143 184.325 165.341 184.073 165.617C183.833 165.881 183.635 166.235 183.479 166.679C183.323 167.111 183.245 167.639 183.245 168.263ZM195.206 170.369C195.278 170.789 195.476 171.119 195.8 171.359C196.124 171.587 196.514 171.701 196.97 171.701C197.57 171.701 198.062 171.563 198.446 171.287C198.83 171.011 199.13 170.627 199.346 170.135C199.562 169.631 199.706 169.031 199.778 168.335C199.862 167.639 199.904 166.871 199.904 166.031H199.832L199.67 166.445C199.562 166.721 199.4 166.955 199.184 167.147C198.98 167.327 198.746 167.477 198.482 167.597C198.218 167.717 197.936 167.801 197.636 167.849C197.348 167.897 197.06 167.921 196.772 167.921C196.364 167.921 195.938 167.843 195.494 167.687C195.062 167.531 194.666 167.285 194.306 166.949C193.946 166.613 193.646 166.193 193.406 165.689C193.178 165.173 193.064 164.555 193.064 163.835C193.064 163.247 193.166 162.689 193.37 162.161C193.574 161.633 193.856 161.171 194.216 160.775C194.576 160.379 195.008 160.067 195.512 159.839C196.016 159.599 196.574 159.479 197.186 159.479C198.074 159.479 198.794 159.677 199.346 160.073C199.91 160.469 200.342 160.979 200.642 161.603C200.954 162.227 201.164 162.929 201.272 163.709C201.38 164.489 201.434 165.257 201.434 166.013C201.434 166.829 201.35 167.627 201.182 168.407C201.026 169.187 200.762 169.883 200.39 170.495C200.03 171.095 199.562 171.581 198.986 171.953C198.41 172.313 197.708 172.493 196.88 172.493C196.484 172.493 196.106 172.451 195.746 172.367C195.386 172.283 195.062 172.157 194.774 171.989C194.486 171.821 194.246 171.605 194.054 171.341C193.862 171.065 193.742 170.741 193.694 170.369H195.206ZM199.724 163.709C199.724 163.097 199.646 162.575 199.49 162.143C199.334 161.711 199.136 161.357 198.896 161.081C198.656 160.793 198.38 160.589 198.068 160.469C197.768 160.337 197.474 160.271 197.186 160.271C196.958 160.271 196.7 160.313 196.412 160.397C196.136 160.481 195.872 160.649 195.62 160.901C195.368 161.153 195.158 161.507 194.99 161.963C194.822 162.407 194.738 162.989 194.738 163.709C194.738 164.381 194.81 164.939 194.954 165.383C195.11 165.815 195.308 166.163 195.548 166.427C195.788 166.691 196.046 166.877 196.322 166.985C196.61 167.093 196.892 167.147 197.168 167.147C197.468 167.147 197.768 167.087 198.068 166.967C198.368 166.835 198.638 166.637 198.878 166.373C199.13 166.097 199.334 165.743 199.49 165.311C199.646 164.867 199.724 164.333 199.724 163.709ZM207.437 165.509C207.017 165.461 206.651 165.341 206.339 165.149C206.039 164.957 205.781 164.729 205.565 164.465C205.361 164.189 205.205 163.895 205.097 163.583C205.001 163.271 204.953 162.959 204.953 162.647C204.953 162.311 205.019 161.957 205.151 161.585C205.283 161.213 205.499 160.871 205.799 160.559C206.099 160.247 206.489 159.989 206.969 159.785C207.449 159.581 208.043 159.479 208.751 159.479C209.447 159.479 210.035 159.581 210.515 159.785C211.007 159.989 211.403 160.247 211.703 160.559C212.003 160.871 212.219 161.213 212.351 161.585C212.495 161.957 212.567 162.311 212.567 162.647C212.567 162.959 212.513 163.271 212.405 163.583C212.309 163.895 212.153 164.189 211.937 164.465C211.733 164.729 211.475 164.957 211.163 165.149C210.863 165.341 210.509 165.461 210.101 165.509V165.599C210.545 165.623 210.941 165.737 211.289 165.941C211.649 166.133 211.949 166.385 212.189 166.697C212.441 166.997 212.633 167.333 212.765 167.705C212.897 168.077 212.963 168.449 212.963 168.821C212.963 169.265 212.873 169.709 212.693 170.153C212.525 170.585 212.267 170.975 211.919 171.323C211.571 171.671 211.133 171.953 210.605 172.169C210.077 172.385 209.459 172.493 208.751 172.493C208.043 172.493 207.425 172.385 206.897 172.169C206.381 171.953 205.949 171.671 205.601 171.323C205.265 170.975 205.013 170.585 204.845 170.153C204.677 169.709 204.593 169.265 204.593 168.821C204.593 168.449 204.659 168.077 204.791 167.705C204.923 167.333 205.109 166.997 205.349 166.697C205.589 166.385 205.883 166.133 206.231 165.941C206.591 165.737 206.993 165.623 207.437 165.599V165.509ZM208.751 165.293C209.051 165.293 209.339 165.245 209.615 165.149C209.903 165.041 210.155 164.885 210.371 164.681C210.599 164.465 210.779 164.207 210.911 163.907C211.043 163.595 211.109 163.229 211.109 162.809C211.109 162.305 211.025 161.891 210.857 161.567C210.701 161.231 210.503 160.973 210.263 160.793C210.023 160.601 209.765 160.469 209.489 160.397C209.225 160.313 208.979 160.271 208.751 160.271C208.523 160.271 208.277 160.313 208.013 160.397C207.749 160.469 207.497 160.601 207.257 160.793C207.029 160.973 206.837 161.231 206.681 161.567C206.525 161.891 206.447 162.305 206.447 162.809C206.447 163.229 206.513 163.595 206.645 163.907C206.777 164.207 206.951 164.465 207.167 164.681C207.383 164.885 207.629 165.041 207.905 165.149C208.181 165.245 208.463 165.293 208.751 165.293ZM208.751 165.923C208.391 165.923 208.061 165.995 207.761 166.139C207.461 166.271 207.203 166.463 206.987 166.715C206.783 166.955 206.621 167.243 206.501 167.579C206.393 167.903 206.339 168.257 206.339 168.641C206.339 169.577 206.555 170.321 206.987 170.873C207.431 171.425 208.019 171.701 208.751 171.701C209.507 171.701 210.107 171.425 210.551 170.873C210.995 170.321 211.217 169.577 211.217 168.641C211.217 168.257 211.157 167.903 211.037 167.579C210.929 167.243 210.767 166.955 210.551 166.715C210.335 166.463 210.071 166.271 209.759 166.139C209.459 165.995 209.123 165.923 208.751 165.923Z" fill="white"/>
<path fill-rule="evenodd" clip-rule="evenodd" d="M288.443 40.4027C285.59 42.8639 281.891 44.3497 277.848 44.3497C268.828 44.3497 261.515 36.9522 261.515 27.8268C261.515 18.7015 268.828 11.304 277.848 11.304C281.891 11.304 285.59 12.7898 288.443 15.251C291.295 12.7898 294.994 11.304 299.037 11.304C308.058 11.304 315.37 18.7015 315.37 27.8268C315.37 36.9522 308.058 44.3497 299.037 44.3497C294.994 44.3497 291.295 42.8639 288.443 40.4027Z" fill="#ED0006"/>
<path fill-rule="evenodd" clip-rule="evenodd" d="M288.443 40.4028C291.955 37.3722 294.181 32.8627 294.181 27.827C294.181 22.7912 291.955 18.2817 288.443 15.2511C291.295 12.7899 294.994 11.3041 299.037 11.3041C308.058 11.3041 315.37 18.7016 315.37 27.827C315.37 36.9523 308.058 44.3498 299.037 44.3498C294.994 44.3498 291.295 42.864 288.443 40.4028Z" fill="#F9A000"/>
<path fill-rule="evenodd" clip-rule="evenodd" d="M288.443 40.4029C291.955 37.3723 294.182 32.8628 294.182 27.827C294.182 22.7913 291.955 18.2818 288.443 15.2512C284.931 18.2818 282.704 22.7913 282.704 27.827C282.704 32.8628 284.931 37.3723 288.443 40.4029Z" fill="#FF5E00"/>
<defs>
<linearGradient id="paint0_linear_11_1075" x1="0.673828" y1="98.1044" x2="327" y2="98.1044" gradientUnits="userSpaceOnUse">
<stop stop-color="#434343"/>
<stop offset="1"/>
</linearGradient>
</defs>
</svg>
