<svg width="18" height="20" viewBox="0 0 18 20" fill="none" xmlns="http://www.w3.org/2000/svg">
<path fill-rule="evenodd" clip-rule="evenodd" d="M8.3415 2.90495C8.71852 2.57506 9.28148 2.57506 9.6585 2.90496L15.6585 8.15496C15.8755 8.34484 16 8.61917 16 8.90753V17C16 17.5523 15.5523 18 15 18H3C2.44772 18 2 17.5523 2 17V8.90753C2 8.61917 2.12448 8.34484 2.3415 8.15496L8.3415 2.90495ZM10.9755 1.3998C9.84444 0.41011 8.15557 0.410107 7.02449 1.3998L1.02449 6.6498C0.373441 7.21947 0 8.04245 0 8.90753V17C0 18.6569 1.34315 20 3 20H15C16.6569 20 18 18.6569 18 17V8.90753C18 8.04245 17.6266 7.21947 16.9755 6.6498L10.9755 1.3998ZM5 13.9999C4.44772 13.9999 4 14.4477 4 14.9999C4 15.5522 4.44772 15.9999 5 15.9999H13C13.5523 15.9999 14 15.5522 14 14.9999C14 14.4477 13.5523 13.9999 13 13.9999H5Z" fill="#017FB0"/>
</svg>
