<svg width="225" height="20" viewBox="0 0 225 20" fill="none" xmlns="http://www.w3.org/2000/svg">
<path d="M155.433 4.9331C155.216 5.20003 154.942 5.41474 154.631 5.56128C154.321 5.70782 153.981 5.78242 153.637 5.77954C153.597 5.09801 153.827 4.42819 154.277 3.91508C154.732 3.3913 155.371 3.06343 156.062 3C156.089 3.34775 156.048 3.69748 155.94 4.02918C155.832 4.36088 155.659 4.66804 155.433 4.9331ZM156.062 5.9168C155.067 5.85961 154.22 6.47729 153.774 6.47729C153.328 6.47729 152.63 5.95112 151.784 5.96256C151.269 5.97287 150.766 6.11765 150.325 6.38252C149.883 6.64739 149.519 7.02313 149.267 7.47243C148.204 9.31403 148.993 12.0478 150.034 13.5463C150.537 14.2783 151.178 15.1019 151.944 15.0676C152.71 15.0333 152.996 14.5757 153.911 14.5757C154.826 14.5757 155.055 15.0676 155.89 15.0561C156.725 15.0447 157.24 14.3126 157.755 13.5691C158.11 13.0438 158.388 12.4697 158.578 11.8648C158.101 11.6579 157.693 11.3161 157.407 10.8813C157.121 10.4465 156.967 9.93764 156.965 9.41697C156.974 8.95692 157.097 8.50632 157.325 8.10658C157.553 7.70683 157.878 7.37077 158.269 7.12928C158.017 6.77419 157.687 6.48139 157.305 6.27324C156.922 6.0651 156.497 5.94709 156.062 5.92824M161.781 3.85788V15.0104H163.565V11.1671H165.956C166.447 11.1946 166.937 11.1192 167.397 10.9458C167.857 10.7723 168.275 10.5046 168.625 10.1599C168.975 9.81525 169.249 9.40114 169.43 8.94421C169.611 8.48729 169.694 7.99765 169.674 7.50675C169.696 7.02002 169.617 6.53388 169.441 6.07945C169.266 5.62503 168.997 5.21233 168.652 4.86778C168.308 4.52322 167.895 4.25441 167.441 4.07854C166.986 3.90267 166.5 3.82362 166.013 3.84645L161.781 3.85788ZM163.565 5.31057H165.51C165.816 5.26714 166.127 5.29267 166.422 5.38528C166.717 5.4779 166.987 5.63526 167.213 5.84583C167.439 6.0564 167.615 6.31485 167.728 6.60224C167.841 6.88963 167.888 7.19868 167.866 7.50675C167.888 7.81671 167.84 8.12755 167.726 8.41673C167.613 8.70592 167.436 8.96618 167.209 9.17864C166.983 9.39111 166.712 9.55044 166.416 9.64508C166.12 9.73972 165.806 9.7673 165.499 9.72581H163.565V5.31057ZM172.785 15.0104C173.296 15.0227 173.802 14.8976 174.248 14.6482C174.695 14.3987 175.066 14.034 175.324 13.592V15.0104H176.926V9.43985C176.926 7.82703 175.644 6.79757 173.666 6.79757C171.687 6.79757 170.509 7.8499 170.429 9.29115H171.984C172.073 8.93535 172.288 8.62366 172.588 8.41348C172.889 8.2033 173.255 8.10877 173.62 8.1473C174.672 8.1473 175.267 8.65059 175.267 9.55423V10.1605L173.105 10.2977C171.103 10.4121 170.017 11.2357 170.017 12.6655C170.028 13.007 170.111 13.3424 170.26 13.65C170.409 13.9576 170.62 14.2306 170.881 14.4515C171.142 14.6724 171.446 14.8363 171.774 14.9325C172.102 15.0288 172.446 15.0553 172.785 15.0104ZM173.242 13.695C172.327 13.695 171.744 13.2489 171.744 12.5511C171.744 11.8534 172.304 11.4073 173.38 11.4073L175.301 11.2814V11.9106C175.296 12.1692 175.238 12.424 175.129 12.659C175.021 12.894 174.865 13.104 174.672 13.2759C174.479 13.4477 174.252 13.5778 174.006 13.6578C173.76 13.7378 173.5 13.766 173.242 13.7407V13.695ZM179.099 17.9501C180.78 17.9501 181.57 17.3095 182.267 15.365L185.299 6.90051H183.548L181.512 13.4776L179.476 6.90051H177.635L180.563 15.0104L180.403 15.5022C180.344 15.8384 180.164 16.1412 179.896 16.3523C179.627 16.5634 179.291 16.6681 178.95 16.6461H178.435V17.9844C178.656 18.0002 178.878 18.004 179.099 17.9958V17.9501Z" fill="black"/>
<path d="M224.299 5.4428C224.299 4.09594 223.203 3 221.856 3H203.741C202.395 3 201.299 4.09594 201.299 5.4428V15.1968C201.299 16.5437 202.395 17.6396 203.741 17.6396H221.856C223.203 17.6396 224.299 16.5437 224.299 15.1968V5.4428ZM223.321 15.1968C223.321 16.005 222.664 16.6625 221.856 16.6625H203.741C202.933 16.6625 202.276 16.005 202.276 15.1968V5.4428C202.276 4.63457 202.933 3.97712 203.741 3.97712H221.856C222.664 3.97712 223.321 4.63457 223.321 5.4428V15.1968Z" fill="#017FB0"/>
<path d="M209.109 5.12645C208.645 5.12645 208.205 5.23266 207.81 5.41738C207.404 5.22929 206.962 5.12552 206.512 5.12552C204.813 5.12552 203.431 6.51102 203.431 8.21385C203.431 9.9133 204.813 11.2955 206.512 11.2955C206.962 11.2955 207.403 11.1922 207.807 11.0048C208.203 11.1902 208.644 11.2969 209.109 11.2969C210.81 11.2969 212.194 9.91281 212.194 8.21194C212.194 6.51054 210.81 5.12645 209.109 5.12645ZM204.408 8.21385C204.408 7.04966 205.352 6.10264 206.512 6.10264C206.623 6.10264 206.732 6.11348 206.839 6.12995C206.334 6.67943 206.024 7.40914 206.024 8.21194C206.024 9.01347 206.334 9.7423 206.837 10.2914C206.73 10.3077 206.623 10.3184 206.512 10.3184C205.352 10.3184 204.408 9.37418 204.408 8.21385ZM209.109 10.3198C207.947 10.3198 207.001 9.37418 207.001 8.21194C207.001 7.04922 207.947 6.10357 209.109 6.10357C210.271 6.10357 211.217 7.04922 211.217 8.21194C211.217 9.37418 210.271 10.3198 209.109 10.3198ZM211.706 13.5889H204.158C203.888 13.5889 203.669 13.8075 203.669 14.0775C203.669 14.3475 203.888 14.566 204.158 14.566H211.706C211.976 14.566 212.194 14.3475 212.194 14.0775C212.194 13.8075 211.976 13.5889 211.706 13.5889ZM220.687 11.1867H215.883C215.613 11.1867 215.395 11.4052 215.395 11.6752C215.395 11.9453 215.613 12.1638 215.883 12.1638H220.687C220.957 12.1638 221.176 11.9453 221.176 11.6752C221.176 11.4052 220.957 11.1867 220.687 11.1867ZM220.687 13.5889H215.883C215.613 13.5889 215.395 13.8075 215.395 14.0775C215.395 14.3475 215.613 14.566 215.883 14.566H220.687C220.957 14.566 221.176 14.3475 221.176 14.0775C221.176 13.8075 220.957 13.5889 220.687 13.5889Z" fill="#017FB0"/>
<path d="M130.314 5.99576L127.177 17.9729L127.17 18H129.613L132.762 5.99576H130.314Z" fill="black"/>
<path d="M91.4949 12.8123C91.1285 12.9927 90.7253 13.0858 90.3169 13.0843C89.4371 13.0843 88.9378 12.9437 88.8835 12.2326V12.1847C88.8835 12.1565 88.8803 12.1314 88.8803 12.0985V10.0273L88.8835 9.78353V8.32342H88.8803V7.70225L88.8835 7.45634V6.04683L86.7011 6.33481C88.1771 6.04894 89.024 4.88113 89.024 3.71699V3H86.5717V6.35342L86.4333 6.39228V12.6025C86.5143 14.3474 87.664 15.3843 89.5505 15.3843C90.2174 15.3843 90.9514 15.2326 91.5135 14.9776L91.5263 14.9723V12.7936L91.4949 12.8123Z" fill="black"/>
<path d="M91.882 5.54431L85 6.60519V8.35003L91.882 7.28918V5.54431Z" fill="black"/>
<path d="M91.882 8.09723L85 9.15807V10.8252L91.882 9.76385V8.09723Z" fill="black"/>
<path d="M99.6056 8.89996C99.5082 6.96136 98.2966 5.8127 96.3229 5.8127C95.1881 5.8127 94.2529 6.25074 93.6178 7.08059C92.9828 7.91044 92.6506 9.12354 92.6506 10.598C92.6506 12.0724 92.9849 13.2892 93.6178 14.1159C94.2507 14.9425 95.1881 15.3838 96.3229 15.3838C98.2966 15.3838 99.5082 14.2293 99.6056 12.2805V15.2012H102.054V6.0171L99.6056 6.39502V8.89996ZM99.7333 10.6001C99.7333 12.3173 98.8316 13.4266 97.4365 13.4266C95.9993 13.4266 95.1397 12.37 95.1397 10.6001C95.1381 8.82012 95.9966 7.75553 97.4349 7.75553C98.1343 7.75553 98.7188 8.02808 99.1249 8.54334C99.5215 9.04688 99.7317 9.75751 99.7317 10.5985L99.7333 10.6001Z" fill="black"/>
<path d="M109.209 5.81319C107.234 5.81319 106.022 6.96239 105.926 8.90314V3.34282L103.474 3.72128V15.2017H105.926V12.28C106.022 14.2314 107.234 15.387 109.209 15.387C111.519 15.387 112.899 13.5979 112.899 10.6011C112.899 7.60434 111.519 5.81319 109.209 5.81319ZM108.095 13.4249C106.699 13.4249 105.798 12.3157 105.798 10.5985C105.798 9.75747 106.008 9.04685 106.405 8.54225C106.811 8.02698 107.396 7.75444 108.095 7.75444C109.532 7.75444 110.392 8.81903 110.392 10.5985C110.392 12.3684 109.533 13.4249 108.095 13.4249Z" fill="black"/>
<path d="M119.576 5.81319C117.602 5.81319 116.39 6.96239 116.294 8.90314V3.34282L113.842 3.72128V15.2017H116.294V12.28C116.39 14.2314 117.602 15.387 119.576 15.387C121.887 15.387 123.267 13.5979 123.267 10.6011C123.267 7.60434 121.887 5.81319 119.576 5.81319ZM118.463 13.4249C117.068 13.4249 116.166 12.3157 116.166 10.5985C116.166 9.75747 116.376 9.04685 116.773 8.54225C117.179 8.02698 117.763 7.75444 118.463 7.75444C119.9 7.75444 120.76 8.81903 120.76 10.5985C120.76 12.3684 119.901 13.4249 118.463 13.4249Z" fill="black"/>
<path d="M123.273 5.99576H125.891L128.018 15.1847H125.671L123.273 5.99576Z" fill="black"/>
<mask id="mask0_15_252" style="mask-type:luminance" maskUnits="userSpaceOnUse" x="0" y="0" width="69" height="20">
<path d="M69 0H0V19.3007H69V0Z" fill="white"/>
</mask>
<g mask="url(#mask0_15_252)">
<path fill-rule="evenodd" clip-rule="evenodd" d="M32.6381 12.3372C32.8391 12.3662 33.0419 12.3823 33.245 12.3857L33.4088 12.3954H33.5083V14.307H33.302L33.2956 14.3071C32.4362 14.3168 31.6226 14.3259 30.8199 14.1286C30.0723 13.9441 29.5613 13.6091 29.2094 13.0739C28.9152 12.6162 28.7581 12.0838 28.7566 11.5398C28.7421 10.6489 28.7421 7.15944 28.7421 7.15944H26.9748V5.46746H28.7421V3H31.3576V5.46746L33.5726 5.1386L34.0642 6.81473C33.2935 7.02834 32.4815 7.08415 31.7157 7.12179L31.3576 7.13758V10.8079C31.3639 11.0262 31.4049 11.242 31.479 11.4475C31.6441 11.939 32.0312 12.2376 32.6381 12.3372ZM41.8333 5.65683C40.7931 5.26601 39.7869 5.07672 38.5198 5.34494C37.5306 5.55366 36.7356 5.9518 36.2137 6.94458C36.4431 7.1315 36.6495 7.30871 36.8509 7.48473C37.1823 7.77238 37.5257 8.06848 37.9858 8.41319C38.3499 7.89371 38.9859 7.30871 39.668 7.29537C40.4593 7.27959 41.2179 7.71531 41.3429 8.35374C41.3939 8.61833 41.4278 9.71191 41.4278 9.71191L41.0128 9.80048C40.9306 9.8312 40.8401 9.8312 40.7579 9.80048L40.6923 9.77499L40.639 9.75438C39.7866 9.42479 38.8825 9.24891 37.9688 9.2349C37.6615 9.23477 37.3547 9.25875 37.0512 9.3065C36.1191 9.45333 35.0109 9.98014 35.0303 11.6611C35.0377 12.3008 35.1711 12.7802 35.4527 13.1698C35.7005 13.5253 36.0319 13.8142 36.4178 14.0113C36.8037 14.2084 37.2321 14.3074 37.6654 14.2997C38.7241 14.3321 39.7574 13.9725 40.5674 13.2899C40.5733 13.2852 40.6009 13.2614 40.6367 13.2305C40.7029 13.1735 40.7969 13.0925 40.8331 13.0642L41.4048 12.6212V14.2876H43.7898V8.46173C43.7909 7.14247 43.0725 6.12293 41.8333 5.65683ZM41.0965 11.1319C40.5868 12.0446 39.7553 12.5605 38.799 12.5605H38.6776C38.4764 12.5563 38.2762 12.5307 38.0804 12.484C37.3656 12.2959 36.959 11.7206 36.9881 10.9462L37.0026 10.6076H41.3878L41.0965 11.1319ZM66.7459 5.65683C65.7058 5.26601 64.6997 5.07672 63.4338 5.34494C62.4434 5.55366 61.6484 5.9518 61.1277 6.94458C61.3571 7.1315 61.5634 7.30871 61.7649 7.48473L61.7667 7.48632C62.0988 7.77344 62.4406 8.06914 62.8997 8.41319C63.2639 7.89371 63.9011 7.30871 64.582 7.29537C65.3745 7.27959 66.1317 7.71531 66.2572 8.35374C66.308 8.61833 66.3417 9.71191 66.3417 9.71191L65.928 9.80048C65.8458 9.8312 65.7552 9.8312 65.6731 9.80048C65.6525 9.79322 65.6294 9.7847 65.6076 9.77499L65.5529 9.75438C64.7006 9.42479 63.7965 9.24891 62.8828 9.2349C62.5755 9.23477 62.2687 9.25875 61.9652 9.3065C61.0331 9.45333 59.9249 9.98014 59.9443 11.6611C59.9516 12.3008 60.0863 12.7802 60.3667 13.1698C60.6144 13.5253 60.9459 13.8142 61.3317 14.0113C61.7177 14.2084 62.1461 14.3074 62.5793 14.2997C63.6384 14.3322 64.6722 13.9726 65.4825 13.2899L65.5154 13.2616C65.577 13.2084 65.7045 13.0982 65.7471 13.0642L66.3186 12.6212V14.2876H68.7036V8.46173C68.7036 7.14247 67.985 6.12293 66.7459 5.65683ZM66.0093 11.1319C65.5008 12.0446 64.6681 12.5605 63.7129 12.5605H63.5915C63.3908 12.5563 63.191 12.5307 62.9956 12.484C62.2795 12.2959 61.8729 11.7206 61.9033 10.9462L61.9179 10.6076H66.3021L66.0093 11.1319ZM79.7265 5.34494C80.994 5.07672 82 5.26601 83.0402 5.65683C84.2793 6.12293 84.9979 7.14247 84.9966 8.46173V14.2876H82.6116V12.6212L82.0402 13.0642C81.9973 13.0982 81.8705 13.208 81.8084 13.2613L81.7754 13.2899C80.965 13.9726 79.9313 14.3322 78.8725 14.2997C78.4392 14.3074 78.0106 14.2084 77.6249 14.0113C77.2391 13.8142 76.9076 13.5253 76.6599 13.1698C76.3779 12.7802 76.2444 12.3008 76.2372 11.6611C76.218 9.98014 77.3257 9.45333 78.2583 9.3065C78.5614 9.25875 78.8686 9.23477 79.1757 9.2349C80.0892 9.24891 80.9934 9.42479 81.8461 9.75438L81.9002 9.77499C81.922 9.7847 81.9451 9.79322 81.9663 9.80048C82.0482 9.83086 82.138 9.83086 82.2199 9.80048L82.6347 9.71191C82.6347 9.71191 82.601 8.61833 82.5501 8.35374C82.4247 7.71531 81.6677 7.27959 80.8751 7.29537C80.1929 7.30871 79.5568 7.89371 79.1929 8.41319C78.7325 8.06848 78.3891 7.77238 78.0581 7.48473C77.8567 7.30871 77.65 7.1315 77.4208 6.94458C77.9426 5.9518 78.7378 5.55366 79.7265 5.34494ZM80.0059 12.5605C80.9623 12.5605 81.7939 12.0446 82.3031 11.1319L82.5924 10.6076H78.2094L78.1949 10.9462C78.1658 11.7206 78.5727 12.2959 79.2873 12.484C79.4828 12.5307 79.6836 12.5563 79.8844 12.5605H80.0059ZM75.2372 5.96877C74.4651 6.00398 73.9156 6.34136 73.5516 7.00528C73.5113 7.07814 73.2537 7.58301 73.2537 7.58301L72.6824 7.45072V7.16915V6.08647H70.376V14.3058H72.6884V13.5593V11.2424V11.0955C72.6884 11.0052 72.6864 10.9139 72.6844 10.8218C72.6804 10.6355 72.6765 10.446 72.6884 10.2568C72.722 9.76197 72.9275 9.29441 73.2689 8.93458C73.6104 8.57481 74.0661 8.34535 74.5589 8.28578C74.8541 8.24357 75.5582 8.2369 75.7444 8.23518L75.7821 8.23479V5.96389C75.5892 5.96151 75.4122 5.96025 75.2372 5.96877ZM53.2725 9.67545C53.2725 8.84528 53.8308 8.18987 54.5894 8.11947C55.5046 8.03334 56.1478 8.49086 56.3117 9.3417C56.3361 9.49131 56.3463 9.64289 56.342 9.7944V13.4768V14.2949H58.6481V13.0217V8.73603C58.6505 8.4684 58.6286 8.2011 58.5825 7.93744C58.3908 6.9179 57.8446 6.29644 56.9234 6.0343C55.9257 5.75517 54.2532 5.96389 53.4764 7.32206L53.122 8.03089C52.9181 7.0138 52.3367 6.27703 51.4094 6.01124C50.4118 5.73212 48.9068 5.96633 48.1324 7.3245L47.7853 7.93136V6.08529H45.3724V14.3058H47.7756V9.84658C47.7755 9.69282 47.7852 9.53913 47.8047 9.38662C47.8324 9.09845 47.9489 8.82599 48.138 8.60691C48.3271 8.38776 48.5796 8.23274 48.8606 8.16319C49.5185 7.99325 50.2018 8.20447 50.5599 8.69112C50.7718 9.00558 50.8754 9.38061 50.8548 9.7592V14.2997H53.2725V9.67545ZM16.878 15C19.8019 15 22.1722 12.6297 22.1722 9.70577C22.1722 6.78184 19.8019 4.41154 16.878 4.41154C13.9541 4.41154 11.5838 6.78184 11.5838 9.70577C11.5838 12.6297 13.9541 15 16.878 15ZM1.10327 6.19572C0.6244 6.69518 0.249402 7.28474 0 7.93017L7.64644 14.2706C8.02265 14.0396 8.36809 13.762 8.67443 13.4441L8.8237 13.2887C11.7209 10.2641 9.81774 6.98705 8.66353 5.88503C7.66024 4.92513 6.31698 4.40269 4.92878 4.43247C3.54058 4.46233 2.22098 5.04191 1.25984 6.044L1.10327 6.19572Z" fill="black"/>
</g>
</svg>
